#!OML:ASF I:\Actors\actors\Patient Classification 2\Patient 1\Session 1\actor1.ASF
:FULLY-SPECIFIED
:DEGREES
358
root -0.614748 18.6998 5.69149 1.09858 -1.34719 -4.59656
lowerback 6.44689 0.700872 -3.59837
upperback -0.892207 0.585869 -1.31154
thorax -4.56858 0.364953 0.600376
lowerneck -10.9992 -2.49116 -5.19674
upperneck 7.58399 -3.24322 6.81978
head 4.26019 -1.36743 2.72228
rclavicle -1.2921e-014 -7.95139e-015
rhumerus -54.1924 -4.5673 -71.9527
rradius 44.5751
rwrist 12.961
rhand -4.28574 -45.2016
rfingers 7.12502
rthumb 21.4795 -74.0307
lclavicle -1.2921e-014 -7.95139e-015
lhumerus 27.2319 -22.6034 58.0125
lradius 139.512
lwrist 14.8286
lhand -21.5918 -53.2239
lfingers 7.12502
lthumb 4.80291 -23.2984
rfemur 0 0 0
rtibia 0
rfoot 0 0
rtoes 0
lfemur -5.9084 -6.56261 -10.0143
ltibia 24.158
lfoot -23.8608 12.5858
ltoes -54.655
359
root -0.605622 18.6988 5.71211 1.12162 -1.33271 -4.59523
lowerback 6.38994 0.577835 -3.51409
upperback -1.03683 0.43328 -1.17657
thorax -4.68161 0.292137 0.70827
lowerneck -11.3392 -2.41661 -5.01283
upperneck 7.26556 -3.11161 6.52433
head 4.20269 -1.31009 2.60747
rclavicle 5.46658e-016 -2.54444e-014
rhumerus -54.5661 -4.94702 -71.4599
rradius 44.612
rwrist 12.9125
rhand -4.36826 -45.1505
rfingers 7.12502
rthumb 21.4003 -73.9886
lclavicle 5.46658e-016 -2.54444e-014
lhumerus 27.7712 -22.0154 57.3918
lradius 139.621
lwrist 14.4649
lhand -21.5502 -53.4397
lfingers 7.12502
lthumb 4.84305 -23.5151
rfemur 0 0 0
rtibia 0
rfoot 0 0
rtoes 0
lfemur -5.88266 -6.67456 -10.0757
ltibia 24.1822
lfoot -23.9503 12.7113
ltoes -54.6875
360
root -0.601277 18.6968 5.73588 1.13586 -1.24521 -4.58274
lowerback 6.2979 0.444017 -3.50457
upperback -1.17799 0.262868 -1.02789
thorax -4.77077 0.212434 0.874534
lowerneck -11.6576 -2.34962 -5.00858
upperneck 6.96436 -2.99022 6.47457
head 4.15469 -1.24949 2.59792
rclavicle -8.44835e-015 1.27222e-014
rhumerus -54.9344 -5.21407 -71.0699
rradius 44.7085
rwrist 12.7398
rhand -4.49259 -45.3181
rfingers 7.12502
rthumb 21.2809 -74.1698
lclavicle -8.44835e-015 1.27222e-014
lhumerus 28.2836 -21.4185 56.8431
lradius 139.675
lwrist 14.1166
lhand -21.5083 -53.5623
lfingers 7.12502
lthumb 4.88355 -23.6386
rfemur 0 0 0
rtibia 0
rfoot 0 0
rtoes 0
lfemur -5.84676 -6.78112 -10.1235
ltibia 24.1988
lfoot -23.9779 12.7964
ltoes -54.8424
361
root -0.596742 18.6949 5.75668 1.15677 -1.15614 -4.59957
lowerback 6.15024 0.312937 -3.49262
upperback -1.27666 0.100223 -0.877251
thorax -4.78349 0.135119 1.04101
lowerneck -11.933 -2.27698 -4.92751
upperneck 6.59363 -2.87479 6.44779
head 4.07804 -1.18971 2.58293
rclavicle -5.76476e-015 3.18055e-015
rhumerus -55.1395 -5.57778 -70.7407
rradius 44.7852
rwrist 12.5501
rhand -4.60585 -45.4448
rfingers 7.12502
rthumb 21.1721 -74.3087
lclavicle -5.76476e-015 3.18055e-015
lhumerus 28.821 -20.7969 56.2157
lradius 139.708
lwrist 13.8917
lhand -21.5178 -53.6602
lfingers 7.12502
lthumb 4.87436 -23.7362
rfemur 0 0 0
rtibia 0
rfoot 0 0
rtoes 0
lfemur -5.8317 -6.77905 -10.1188
ltibia 24.2059
lfoot -23.9395 12.7685
ltoes -54.9976
362
root -0.591749 18.6929 5.77794 1.16084 -1.11786 -4.58546
lowerback 5.6766 0.137285 -3.70549
upperback -1.1457 -0.11228 -0.602335
thorax -4.36877 0.031456 1.46696
lowerneck -12.258 -2.1416 -4.84661
upperneck 6.05554 -2.65478 6.29923
head 3.95028 -1.0855 2.53757
rclavicle -6.80837e-015 -1.74931e-014
rhumerus -54.8034 -5.90264 -70.3729
rradius 44.7746
rwrist 12.4314
rhand -4.64065 -45.5506
rfingers 7.12502
rthumb 21.1386 -74.4182
lclavicle -6.80837e-015 -1.74931e-014
lhumerus 29.4374 -19.8634 55.6177
lradius 139.703
lwrist 13.7483
lhand -21.5408 -53.7885
lfingers 7.12502
lthumb 4.85219 -23.8641
rfemur 0 0 0
rtibia 0
rfoot 0 0
rtoes 0
lfemur -5.77825 -6.71114 -10.1522
ltibia 24.2128
lfoot -23.9116 12.7025
ltoes -55.1496
363
root -0.587179 18.6905 5.80136 1.14246 -1.14941 -4.5561
lowerback 6.10647 0.139968 -3.4047
upperback -1.649 -0.12128 -0.667637
thorax -5.13767 0.0356257 1.23113
lowerneck -12.1021 -2.15277 -4.68023
upperneck 5.90701 -2.6987 6.32808
head 3.88059 -1.10526 2.51696
rclavicle 9.58515e-015 -6.36111e-015
rhumerus -55.7023 -6.56642 -70.0556
rradius 44.9348
rwrist 12.3862
rhand -4.66767 -45.4964
rfingers 7.12502
rthumb 21.1127 -74.3669
lclavicle 9.58515e-015 -6.36111e-015
lhumerus 29.6197 -19.8267 55.05
lradius 139.717
lwrist 13.8081
lhand -21.5721 -53.7915
lfingers 7.12502
lthumb 4.82194 -23.8663
rfemur 0 0 0
rtibia 0
rfoot 0 0
rtoes 0
lfemur -5.66682 -6.71313 -10.2208
ltibia 24.2258
lfoot -23.9984 12.7117
ltoes -55.1868
364
root -0.583059 18.6886 5.82355 1.12306 -1.1555 -4.52679
lowerback 6.19017 0.0845328 -3.30986
upperback -1.88495 -0.194142 -0.610734
thorax -5.42909 0.00449167 1.24461
lowerneck -12.1908 -2.08703 -4.50106
upperneck 5.68918 -2.62197 6.28074
head 3.82127 -1.06583 2.47811
rclavicle 7.44821e-015 6.36111e-015
rhumerus -56.0549 -7.07519 -69.8281
rradius 45.0507
rwrist 12.1961
rhand -4.74872 -45.104
rfingers 7.12502
rthumb 21.0348 -73.9832
lclavicle 7.44821e-015 6.36111e-015
lhumerus 30.0353 -19.3544 54.4638
lradius 139.685
lwrist 13.8727
lhand -21.6745 -53.7342
lfingers 7.12502
lthumb 4.72312 -23.8069
rfemur 0 0 0
rtibia 0
rfoot 0 0
rtoes 0
lfemur -5.56907 -6.73092 -10.2779
ltibia 24.2336
lfoot -24.1319 12.6526
ltoes -55.06
365
root -0.57864 18.6871 5.84523 1.12837 -1.13359 -4.49036
lowerback 6.13592 -0.016086 -3.2733
upperback -2.05944 -0.322379 -0.51547
thorax -5.57501 -0.0542488 1.33685
lowerneck -12.3436 -1.97955 -4.40099
upperneck 5.50596 -2.48237 6.30215
head 3.78164 -0.99236 2.47756
rclavicle -1.11816e-016 1.11319e-014
rhumerus -56.1944 -7.52421 -69.6335
rradius 45.1112
rwrist 11.9979
rhand -4.74655 -44.7427
rfingers 7.12502
rthumb 21.0369 -73.6217
lclavicle -1.11816e-016 1.11319e-014
lhumerus 30.3841 -18.8579 53.9278
lradius 139.667
lwrist 13.9031
lhand -21.7937 -53.695
lfingers 7.12502
lthumb 4.60794 -23.7652
rfemur 0 0 0
rtibia 0
rfoot 0 0
rtoes 0
lfemur -5.50658 -6.68421 -10.3321
ltibia 24.2294
lfoot -24.2125 12.521
ltoes -54.9595
366
root -0.574288 18.6862 5.86767 1.17966 -1.14347 -4.47017
lowerback 6.05176 -0.0977707 -3.21126
upperback -2.29243 -0.423965 -0.434392
thorax -5.7668 -0.0996175 1.39732
lowerneck -12.2863 -1.88333 -4.22944
upperneck 5.21682 -2.36918 6.29411
head 3.67614 -0.936519 2.45515
rclavicle -2.03754e-015 -2.38542e-014
rhumerus -56.3685 -7.91719 -69.5022
rradius 45.141
rwrist 11.8482
rhand -4.63915 -44.7441
rfingers 7.12502
rthumb 21.1401 -73.6116
lclavicle -2.03754e-015 -2.38542e-014
lhumerus 30.7155 -18.5448 53.4607
lradius 139.613
lwrist 13.9993
lhand -21.7294 -53.6385
lfingers 7.12502
lthumb 4.6701 -23.7099
rfemur 0 0 0
rtibia 0
rfoot 0 0
rtoes 0
lfemur -5.47159 -6.71267 -10.3832
ltibia 24.2173
lfoot -24.2845 12.546
ltoes -54.9478
367
root -0.570946 18.6859 5.8892 1.25553 -1.12126 -4.43566
lowerback 5.9312 -0.174351 -3.20975
upperback -2.53231 -0.521268 -0.334092
thorax -5.94502 -0.140278 1.51134
lowerneck -12.2386 -1.81796 -4.12318
upperneck 5.05171 -2.29689 6.34528
head 3.614 -0.898202 2.4587
rclavicle 2.65874e-015 1.82882e-014
rhumerus -56.5693 -8.20242 -69.4292
rradius 45.2385
rwrist 11.7001
rhand -4.5063 -44.7764
rfingers 7.12502
rthumb 21.2677 -73.6295
lclavicle 2.65874e-015 1.82882e-014
lhumerus 31.1124 -18.2458 53.0472
lradius 139.488
lwrist 14.0204
lhand -21.6942 -53.6652
lfingers 7.12502
lthumb 4.70405 -23.7374
rfemur 0 0 0
rtibia 0
rfoot 0 0
rtoes 0
lfemur -5.47441 -6.76369 -10.442
ltibia 24.2063
lfoot -24.3379 12.5923
ltoes -54.9628
